<svg width="18" height="18" viewBox="0 0 18 18" fill="none" xmlns="http://www.w3.org/2000/svg">
<g id="tooth-2 2" clip-path="url(#clip0_3_715)">
<path id="Vector" d="M13.5002 0.000184922C12.5034 0.000470626 11.5128 0.156088 10.5639 0.461435C10.0603 0.63611 9.53303 0.733464 9.00019 0.750185C8.46735 0.733464 7.94011 0.63611 7.43644 0.461435C6.48757 0.156183 5.49695 0.000568302 4.50019 0.000184922C3.90316 -0.0224483 3.3079 0.0784652 2.75169 0.296602C2.19548 0.514739 1.69032 0.845398 1.26786 1.26786C0.845398 1.69032 0.514739 2.19548 0.296602 2.75169C0.0784652 3.3079 -0.0224483 3.90316 0.000184922 4.50019C0.000184922 9.33244 2.51644 14.0897 4.32619 17.1639C4.51682 17.4855 4.80781 17.7356 5.15441 17.8757C5.50101 18.0159 5.88405 18.0383 6.24462 17.9395C6.6052 17.8408 6.92337 17.6263 7.15021 17.3292C7.37705 17.032 7.50001 16.6685 7.50019 16.2947V11.3304C7.49209 10.9653 7.61267 10.6089 7.84083 10.3237C8.06898 10.0386 8.39018 9.84269 8.74819 9.77044C8.96348 9.73374 9.1842 9.74451 9.3949 9.80198C9.6056 9.85945 9.80122 9.96224 9.96807 10.1032C10.1349 10.2441 10.269 10.4197 10.3609 10.6179C10.4528 10.816 10.5003 11.0318 10.5002 11.2502V16.2947C10.5004 16.6685 10.6233 17.032 10.8502 17.3292C11.077 17.6263 11.3952 17.8408 11.7557 17.9395C12.1163 18.0383 12.4994 18.0159 12.846 17.8757C13.1926 17.7356 13.4835 17.4855 13.6742 17.1639C15.4847 14.0889 18.0002 9.33169 18.0002 4.50019C18.0228 3.90316 17.9219 3.3079 17.7038 2.75169C17.4856 2.19548 17.155 1.69032 16.7325 1.26786C16.31 0.845398 15.8049 0.514739 15.2487 0.296602C14.6925 0.0784652 14.0972 -0.0224483 13.5002 0.000184922Z" fill="black" fill-opacity="0.2"/>
</g>
<defs>
<clipPath id="clip0_3_715">
<rect width="18" height="18" fill="white"/>
</clipPath>
</defs>
</svg>
