<svg width="15" height="16" viewBox="0 0 15 16" fill="none" xmlns="http://www.w3.org/2000/svg">
<g id="calendar-clock 1" clip-path="url(#clip0_3_834)">
<path id="Vector" d="M10.625 6.77437C8.21313 6.77437 6.25 8.73687 6.25 11.1494C6.25 13.5481 8.21313 15.5 10.625 15.5C13.0369 15.5 15 13.5375 15 11.125C15 8.72625 13.0369 6.77437 10.625 6.77437ZM10.625 14.25C8.90187 14.25 7.5 12.8587 7.5 11.1494C7.5 9.42625 8.90187 8.02437 10.625 8.02437C12.3481 8.02437 13.75 9.41562 13.75 11.125C13.75 12.8481 12.3481 14.25 10.625 14.25ZM11.6919 11.3081C11.9363 11.5525 11.9363 11.9475 11.6919 12.1919C11.57 12.3138 11.41 12.375 11.25 12.375C11.09 12.375 10.93 12.3138 10.8081 12.1919L10.1831 11.5669C10.0656 11.4494 10 11.2906 10 11.125V9.875C10 9.53 10.2794 9.25 10.625 9.25C10.9706 9.25 11.25 9.53 11.25 9.875V10.8663L11.6919 11.3081ZM15 4.875V6.125C15 6.47 14.7206 6.75 14.375 6.75C14.0294 6.75 13.75 6.47 13.75 6.125V4.875C13.75 3.84125 12.9087 3 11.875 3H3.125C2.09125 3 1.25 3.84125 1.25 4.875V5.5H6.875C7.22 5.5 7.5 5.78 7.5 6.125C7.5 6.47 7.22 6.75 6.875 6.75H1.25V12.375C1.25 13.4087 2.09125 14.25 3.125 14.25H5.625C5.97 14.25 6.25 14.53 6.25 14.875C6.25 15.22 5.97 15.5 5.625 15.5H3.125C1.40188 15.5 0 14.0981 0 12.375V4.875C0 3.15188 1.40188 1.75 3.125 1.75H3.75V1.125C3.75 0.78 4.03 0.5 4.375 0.5C4.72 0.5 5 0.78 5 1.125V1.75H10V1.125C10 0.78 10.2794 0.5 10.625 0.5C10.9706 0.5 11.25 0.78 11.25 1.125V1.75H11.875C13.5981 1.75 15 3.15188 15 4.875Z" fill="white"/>
</g>
<defs>
<clipPath id="clip0_3_834">
<rect width="15" height="15" fill="white" transform="translate(0 0.5)"/>
</clipPath>
</defs>
</svg>
