<svg width="15" height="16" viewBox="0 0 15 16" fill="none" xmlns="http://www.w3.org/2000/svg">
<g id="phone-flip-5 1" clip-path="url(#clip0_3_830)">
<path id="Vector" d="M-0.00050354 4.42149C-0.00050354 9.18718 6.3184 15.4999 11.0779 15.4999C12.1196 15.4999 13.0927 15.1069 13.81 14.3895L14.4338 13.6722C15.1574 12.9486 15.1574 11.726 14.4026 10.9712C14.3839 10.9525 12.8806 9.79849 12.8806 9.79849C12.132 9.08738 10.9531 9.08738 10.2108 9.79849L9.30008 10.5283C7.30398 9.67997 5.88799 8.25775 4.97727 6.19303L5.70086 5.28231C6.41821 4.54001 6.41821 3.35482 5.70086 2.61252C5.70086 2.61252 4.54686 1.10921 4.52815 1.0905C3.77338 0.33572 2.55076 0.33572 1.79599 1.0905L1.14102 1.65814C0.392479 2.40044 -0.00050354 3.37354 -0.00050354 4.41525V4.42149Z" fill="white"/>
</g>
<defs>
<clipPath id="clip0_3_830">
<rect width="15" height="15" fill="white" transform="matrix(-1 0 0 1 15 0.5)"/>
</clipPath>
</defs>
</svg>
